HIERARCHY
ROOT Hips
{
	OFFSET 0.00000 0.00000 0.00000
	CHANNELS 6 Xposition Yposition Zposition Zrotation Yrotation Xrotation 
	JOINT LHipJoint
	{
		OFFSET 0 0 0
		CHANNELS 3 Zrotation Yrotation Xrotation
		JOINT LeftHip
		{
			OFFSET 1.78158 -1.79992 1.25746
			CHANNELS 3 Zrotation Yrotation Xrotation
			JOINT LeftKnee
			{
				OFFSET 2.48433 -6.82566 0.00000
				CHANNELS 3 Zrotation Yrotation Xrotation
				JOINT LeftAnkle
				{
					OFFSET 2.69722 -7.41057 0.00000
					CHANNELS 3 Zrotation Yrotation Xrotation
					JOINT LeftToe
					{
						OFFSET 0.10733 -0.29489 1.75071
						CHANNELS 3 Zrotation Yrotation Xrotation
						End Site
						{
							OFFSET 0.00000 -0.00000 0.90224
						}
					}
				}
			}
		}
	}
	JOINT RHipJoint
	{
		OFFSET 0 0 0
		CHANNELS 3 Zrotation Yrotation Xrotation
		JOINT RightHip
		{
			OFFSET -1.91234 -1.79993 1.25746
			CHANNELS 3 Zrotation Yrotation Xrotation
			JOINT RightKnee
			{
				OFFSET -2.33122 -6.40498 0.00000
				CHANNELS 3 Zrotation Yrotation Xrotation
				JOINT RightAnkle
				{
					OFFSET -2.75667 -7.57390 0.00000
					CHANNELS 3 Zrotation Yrotation Xrotation
					JOINT RightToe
					{
						OFFSET -0.15946 -0.43811 1.78925
						CHANNELS 3 Zrotation Yrotation Xrotation
						End Site
						{
							OFFSET -0.00000 -0.00000 0.93158
						}
					}
				}
			}
		}
	}
	JOINT lowerback
	{
		OFFSET 0 0 0
		CHANNELS 3 Zrotation Yrotation Xrotation
		JOINT Chest
		{
			OFFSET -0.02267 2.03993 -0.26238
			CHANNELS 3 Zrotation Yrotation Xrotation
			JOINT Chest2
			{
				OFFSET 0.02263 2.06220 -0.00892
				CHANNELS 3 Zrotation Yrotation Xrotation
				JOINT lowerneck
				{
					OFFSET 0 0 0
					CHANNELS 3 Zrotation Yrotation Xrotation
					JOINT Neck
					{
						OFFSET -0.06177 1.95978 0.28606
						CHANNELS 3 Zrotation Yrotation Xrotation
						JOINT Head
						{
							OFFSET 0.08482 1.96576 -0.43252
							CHANNELS 3 Zrotation Yrotation Xrotation
							End Site
							{
								OFFSET 0.02787 2.02739 -0.18071
							}
						}
					}
				}
				JOINT LeftCollar
				{
					OFFSET 0 0 0
					CHANNELS 3 Zrotation Yrotation Xrotation
					JOINT LeftShoulder
					{
						OFFSET 3.80978 1.64906 0.29973
CHANNELS 3 Zrotation Xrotation Yrotation
						JOINT LeftElbow
						{
OFFSET 0 -4.930420 0.000000
CHANNELS 3 Zrotation Xrotation Yrotation
							JOINT LeftWrist
							{
OFFSET 0 -3.681770 0.000000
CHANNELS 3 Zrotation Xrotation Yrotation
								JOINT lhand
								{
									OFFSET 0 0 0
CHANNELS 3 Zrotation Xrotation Yrotation
									JOINT LFingers
									{
OFFSET 0 -0.721480 0.000000
CHANNELS 3 Zrotation Xrotation Yrotation
										End Site
										{
OFFSET 0 -0.581680 0.000000
										}
									}
								}
								JOINT LThumb
								{
OFFSET 0 0.000000 0.000000
CHANNELS 3 Zrotation Xrotation Yrotation
									End Site
									{
OFFSET 0 -0.590560 0.590560
									}
								}
							}
						}
					}
				}
				JOINT RightCollar
				{
					OFFSET 0 0 0
					CHANNELS 3 Zrotation Yrotation Xrotation
					JOINT RightShoulder
					{
						OFFSET -3.49270 1.85636 0.09297
CHANNELS 3 Zrotation Xrotation Yrotation
						JOINT RightElbow
						{
OFFSET 0 -5.079050 -0.000000
CHANNELS 3 Zrotation Xrotation Yrotation
							JOINT RightWrist
							{
OFFSET 0 -3.543940 0.000000
CHANNELS 3 Zrotation Xrotation Yrotation
								JOINT rhand
								{
									OFFSET 0 0 0
CHANNELS 3 Zrotation Xrotation Yrotation
									JOINT RFingers
									{
OFFSET 0 -0.681160 0.000000
CHANNELS 3 Zrotation Xrotation Yrotation
										End Site
										{
OFFSET 0 -0.549170 0.000000
										}
									}
								}
								JOINT RThumb
								{
OFFSET 0 0.000000 0.000000
CHANNELS 3 Zrotation Xrotation Yrotation
									End Site
									{
OFFSET 0 -0.557550 0.557550
									}
								}
							}
						}
					}
				}
			}
		}
	}
}
MOTION
Frames: 8
Frame Time: 0.008333333333333333
-9.924596 17.961438 -16.829346 -50.873562 88.431016 -45.444260 0.000000 0.000000 0.000000 -13.814892 -6.220325 -10.567613 2.062866 8.995779 25.782170 1.394530 0.980782 -22.696423 2.139040 -9.149864 -26.265138 0.000000 0.000000 0.000000 15.242372 -3.911608 4.000918 0.000000 0.000000 0.000000 0.391740 -14.180851 -14.760101 -0.027592 1.072305 -2.947753 1.503708 0.430007 7.827887 2.383819 0.914249 -2.240696 1.527673 0.452691 -6.764510 -5.224424 -3.654548 -21.280759 1.346137 -3.454245 27.701156 0.836513 -1.768265 12.937536 0.000000 0.000000 0.000000 4.583563 -10.860719 -56.456691 107.119238 -58.860031 74.768685 39.688045 -36.977764 -12.462309 0.000000 0.000000 0.000000 -7.125000 0.000000 0.000000 11.734905 45.668788 -0.196306 0.000000 0.000000 0.000000 -9.183490 -9.439406 46.328082 -112.079103 -58.073506 -78.997140 -33.440097 5.809941 33.833323 0.000000 0.000000 0.000000 7.125000 0.000000 0.000000 -1.274900 68.749051 0.726146
-9.935889 17.961570 -16.830740 -49.423181 88.406861 -44.021687 0.000000 0.000000 0.000000 -13.821653 -6.142150 -10.626460 2.071084 9.012531 25.834594 1.390865 0.937837 -22.650702 2.143097 -9.157994 -26.290761 0.000000 0.000000 0.000000 15.226306 -3.860269 3.998671 0.000000 0.000000 0.000000 0.396482 -14.201363 -14.717382 -0.028255 1.085283 -2.983482 1.451608 0.448436 7.848559 2.427270 0.937124 -2.229311 1.599365 0.467339 -6.766393 -5.178415 -3.607952 -21.212423 1.291804 -3.389905 27.658033 0.819939 -1.742650 12.901133 0.000000 0.000000 0.000000 4.338624 -12.073363 -56.110270 105.434692 -59.073910 73.324755 39.595033 -37.347126 -12.628730 0.000000 0.000000 0.000000 -7.125000 0.000000 0.000000 11.659360 45.860157 -0.250690 0.000000 0.000000 0.000000 -9.139475 -10.729902 46.175515 -110.767828 -58.301462 -77.882444 -33.514862 5.910669 34.073423 0.000000 0.000000 0.000000 7.125000 0.000000 0.000000 -1.243277 69.026697 0.715855
-9.947182 17.962148 -16.832867 -47.871086 88.410177 -42.491026 0.000000 0.000000 0.000000 -13.856456 -6.084880 -10.677576 2.076296 9.023139 25.867779 1.385895 0.912181 -22.601059 2.149504 -9.170762 -26.331006 0.000000 0.000000 0.000000 15.183655 -3.825230 3.986976 0.000000 0.000000 0.000000 0.401656 -14.225111 -14.673456 -0.029759 1.113710 -3.061708 1.406253 0.465404 7.864063 2.449468 0.956884 -2.218853 1.645390 0.479524 -6.765740 -5.144947 -3.573700 -21.158121 1.263919 -3.346698 27.620235 0.811812 -1.723992 12.871473 0.000000 0.000000 0.000000 4.138112 -13.304520 -55.797536 103.687883 -59.274949 71.824840 39.501508 -37.744843 -12.807309 0.000000 0.000000 0.000000 -7.125000 0.000000 0.000000 11.583759 46.066118 -0.308700 0.000000 0.000000 0.000000 -9.116685 -11.984845 46.023420 -109.391175 -58.526913 -76.709889 -33.572526 5.923295 34.266156 0.000000 0.000000 0.000000 7.125000 0.000000 0.000000 -1.212837 69.248745 0.704455
-9.958475 17.963187 -16.836054 -46.456761 88.447728 -41.089656 0.000000 0.000000 0.000000 -13.919919 -6.057652 -10.722887 2.078375 9.027434 25.881150 1.379314 0.906154 -22.545703 2.159966 -9.191546 -26.396408 0.000000 0.000000 0.000000 15.113958 -3.816362 3.961827 0.000000 0.000000 0.000000 0.407199 -14.251715 -14.628838 -0.032322 1.160614 -3.190712 1.381035 0.479745 7.873208 2.444896 0.972957 -2.210054 1.652526 0.488253 -6.762276 -5.128665 -3.557280 -21.119669 1.269946 -3.333257 27.585109 0.814237 -1.715609 12.848402 0.000000 0.000000 0.000000 3.990957 -14.560328 -55.534610 101.865417 -59.459309 70.256916 39.410471 -38.158180 -13.011553 0.000000 0.000000 0.000000 -7.125000 0.000000 0.000000 11.511983 46.303825 -0.375280 0.000000 0.000000 0.000000 -9.133659 -13.187583 45.872107 -107.950245 -58.745498 -75.479785 -33.619776 5.837593 34.416498 0.000000 0.000000 0.000000 7.125000 0.000000 0.000000 -1.191151 69.422644 0.696556
-9.969768 17.964412 -16.840600 -46.024448 88.527962 -40.655475 0.000000 0.000000 0.000000 -13.997959 -6.077740 -10.774251 2.078229 9.027097 25.880129 1.370508 0.920819 -22.480092 2.181731 -9.234630 -26.532228 0.000000 0.000000 0.000000 15.030485 -3.854315 3.912773 0.000000 0.000000 0.000000 0.412247 -14.275416 -14.587494 -0.035503 1.215548 -3.342076 1.407270 0.488218 7.876609 2.411044 0.984336 -2.207247 1.600672 0.491733 -6.760294 -5.137401 -3.568533 -21.098205 1.314024 -3.362438 27.545968 0.827842 -1.723533 12.830149 0.000000 0.000000 0.000000 3.901618 -15.841091 -55.351367 99.957399 -59.614823 68.611780 39.326971 -38.521422 -13.274910 0.000000 0.000000 0.000000 -7.125000 0.000000 0.000000 11.451202 46.614852 -0.462059 0.000000 0.000000 0.000000 -9.216295 -14.303967 45.710233 -106.463112 -58.945923 -74.206565 -33.679381 5.678879 34.567396 0.000000 0.000000 0.000000 7.125000 0.000000 0.000000 -1.186823 69.600866 0.698788
-9.981092 17.965659 -16.845777 -46.511619 88.627546 -41.130372 0.000000 0.000000 0.000000 -14.074697 -6.122400 -10.834766 2.077348 9.025327 25.874594 1.360314 0.945733 -22.407056 2.213752 -9.297535 -26.730828 0.000000 0.000000 0.000000 14.948380 -3.918333 3.848266 0.000000 0.000000 0.000000 0.416428 -14.293858 -14.550399 -0.038294 1.262702 -3.471939 1.463176 0.492904 7.879715 2.366676 0.993126 -2.209826 1.521429 0.492431 -6.763150 -5.158277 -3.594393 -21.086351 1.370306 -3.411924 27.503513 0.844484 -1.740085 12.813879 0.000000 0.000000 0.000000 3.837227 -17.125013 -55.212003 98.020874 -59.748849 66.940144 39.248081 -38.832926 -13.573062 0.000000 0.000000 0.000000 -7.125000 0.000000 0.000000 11.396664 46.968861 -0.560548 0.000000 0.000000 0.000000 -9.324957 -15.370847 45.532510 -104.960298 -59.132836 -72.917917 -33.744369 5.504703 34.737210 0.000000 0.000000 0.000000 7.125000 0.000000 0.000000 -1.177682 69.800667 0.698651
-9.992454 17.966907 -16.851527 -47.993243 88.744579 -42.589044 0.000000 0.000000 0.000000 -14.147562 -6.190293 -10.905755 2.075891 9.022482 25.865643 1.348734 0.980231 -22.326348 2.256823 -9.381716 -26.996859 0.000000 0.000000 0.000000 14.870111 -4.007521 3.768205 0.000000 0.000000 0.000000 0.419605 -14.306190 -14.518097 -0.040498 1.298867 -3.571410 1.547990 0.493785 7.883366 2.313768 0.999419 -2.218196 1.417279 0.490482 -6.771827 -5.190370 -3.634139 -21.083878 1.435825 -3.480060 27.457560 0.863151 -1.764848 12.799342 0.000000 0.000000 0.000000 3.794970 -18.408910 -55.114929 96.062282 -59.860528 65.247624 39.173782 -39.087787 -13.905329 0.000000 0.000000 0.000000 -7.125000 0.000000 0.000000 11.348205 47.364965 -0.670470 0.000000 0.000000 0.000000 -9.455723 -16.389467 45.336626 -103.445016 -59.305708 -71.616643 -33.813956 5.322517 34.930429 0.000000 0.000000 0.000000 7.125000 0.000000 0.000000 -1.159586 70.026538 0.693820
-10.003678 17.968292 -16.857069 -51.425896 88.864714 -45.980474 0.000000 0.000000 0.000000 -14.202018 -6.271908 -11.000117 2.074090 9.018741 25.853865 1.335016 1.028105 -22.232540 2.323749 -9.509611 -27.403268 0.000000 0.000000 0.000000 14.810043 -4.115531 3.665459 0.000000 0.000000 0.000000 0.420575 -14.304181 -14.496828 -0.040082 1.292078 -3.552773 1.649627 0.490667 7.897014 2.265686 1.003438 -2.238149 1.309129 0.486810 -6.798154 -5.225704 -3.683815 -21.100021 1.482452 -3.554676 27.407746 0.873682 -1.795540 12.787217 0.000000 0.000000 0.000000 3.768089 -19.656058 -55.058602 94.149471 -59.928633 63.592543 39.107895 -39.251085 -14.264141 0.000000 0.000000 0.000000 -7.125000 0.000000 0.000000 11.307744 47.793406 -0.788665 0.000000 0.000000 0.000000 -9.564149 -17.357962 45.092960 -101.912911 -59.452656 -70.297650 -33.846380 5.159981 35.164672 0.000000 0.000000 0.000000 7.125000 0.000000 0.000000 -1.053031 70.283367 0.635762
